<?xml version="1.0" encoding="iso-8859-1"?>
<!-- Generator: Adobe Illustrator 19.0.0, SVG Export Plug-In . SVG Version: 6.00 Build 0)  -->
<svg version="1.1" id="Layer_1" xmlns="http://www.w3.org/2000/svg" xmlns:xlink="http://www.w3.org/1999/xlink" x="0px" y="0px"
	 viewBox="0 0 392.582 392.582" style="enable-background:new 0 0 392.582 392.582;" xml:space="preserve">
<path style="fill:#FFFFFF;" d="M190.254,22.416C142.804,23.579,86.496,65.794,86.496,128.501c0,0.905-5.301,40.404,28.509,77.511
	c13.317-32.453,45.059-54.562,81.39-54.562c36.396,0,68.073,22.109,81.39,54.497c18.295-20.105,28.574-46.222,28.574-73.826
	C307.652,84.024,265.438,20.606,190.254,22.416z"/>
<path style="fill:#FFC10D;" d="M196.201,173.236c-30.19,0-56.242,20.234-64,48.937c21.657,20.493,34.004,48.614,34.004,78.352
	v22.562c0,0.453,0.388,0.84,0.84,0.84h58.44c0.453,0,0.84-0.388,0.84-0.84V300.59c0-29.285,12.283-57.406,34.004-78.287
	C252.509,193.535,226.456,173.236,196.201,173.236z"/>
<path style="fill:#194F82;" d="M189.026,0.695C121.47,4.315,66.844,60.169,64.646,127.79
	c-1.422,41.244,16.162,79.968,48.032,106.149c20.234,16.549,31.806,40.792,31.806,66.586v22.562
	c0,12.412,10.15,22.562,22.562,22.562h58.44c12.412,0,22.562-10.15,22.562-22.562v-22.562c0-25.6,11.83-50.101,32.453-67.232
	c30.19-25.083,47.515-61.996,47.515-101.172C325.236,33.341,235.054-5.835,189.026,0.695z M226.262,300.59v22.562
	c0,0.453-0.388,0.84-0.84,0.84h-58.44c-0.453,0-0.84-0.388-0.84-0.84V300.59c0-29.737-12.283-57.923-34.004-78.352
	c7.758-28.638,33.745-48.937,64-48.937c30.319,0,56.307,20.299,64.065,49.067C238.61,243.183,226.262,271.305,226.262,300.59z
	 M277.656,206.012c-13.317-32.453-45.059-54.497-81.39-54.497c-36.396,0-68.073,22.109-81.39,54.562
	c-33.81-37.107-28.509-76.671-28.509-77.511c0-62.772,56.307-104.921,103.758-106.085c75.184-1.745,117.398,61.673,116.04,109.834
	C306.23,159.725,295.951,185.907,277.656,206.012z"/>
<path style="fill:#56ACE0;" d="M196.072,43.555c-34.78,0-68.719,24.113-81.455,54.562h21.398c6.012,0,10.925,4.848,10.925,10.925
	c0,6.012-4.848,10.925-10.925,10.925h-27.41c-0.388,2.909-0.646,17.519-0.129,21.786h15.903c6.012,0,10.925,4.848,10.925,10.925
	c0,6.012-4.848,10.925-10.925,10.925h-10.602c3.103,7.952,7.37,15.451,12.606,22.303c16.226-21.075,41.503-34.392,69.689-34.392
	s53.527,13.317,69.754,34.392c11.895-15.321,18.554-34.263,18.554-54.044C284.315,83.183,244.751,43.555,196.072,43.555z"/>
<path style="fill:#FFFFFF;" d="M196.266,73.616c-12.412,0-22.497,10.149-22.497,22.497s10.15,22.497,22.497,22.497
	c12.412,0,22.497-10.15,22.497-22.497S208.614,73.616,196.266,73.616z"/>
<g>
	<path style="fill:#194F82;" d="M196.266,51.83c-24.436,0-44.283,19.846-44.283,44.283s19.846,44.283,44.283,44.283
		s44.283-19.846,44.283-44.283S220.702,51.83,196.266,51.83z M196.266,118.674c-12.412,0-22.497-10.149-22.497-22.497
		s10.15-22.497,22.497-22.497c12.412,0,22.497,10.149,22.497,22.497S208.614,118.674,196.266,118.674z"/>
	<path style="fill:#194F82;" d="M228.848,370.731h-65.164c-6.012,0-10.925,4.848-10.925,10.925c0,6.012,4.848,10.925,10.925,10.925
		h65.164c6.012,0,10.925-4.849,10.925-10.925C239.709,375.579,234.86,370.731,228.848,370.731z"/>
</g>
<g>
</g>
<g>
</g>
<g>
</g>
<g>
</g>
<g>
</g>
<g>
</g>
<g>
</g>
<g>
</g>
<g>
</g>
<g>
</g>
<g>
</g>
<g>
</g>
<g>
</g>
<g>
</g>
<g>
</g>
</svg>
