<?xml version="1.0" encoding="iso-8859-1"?>
<!-- Generator: Adobe Illustrator 19.0.0, SVG Export Plug-In . SVG Version: 6.00 Build 0)  -->
<svg version="1.1" id="Layer_1" xmlns="http://www.w3.org/2000/svg" xmlns:xlink="http://www.w3.org/1999/xlink" x="0px" y="0px"
	 viewBox="0 0 512.001 512.001" style="enable-background:new 0 0 512.001 512.001;" xml:space="preserve">
<path style="fill:#D3D1DA;" d="M498.146,315.538c5.611,11.378,4.158,24.132-10.516,36.195
	c-17.397,14.302-64.458,22.998-95.872-14.568s-24.579-88.457,11.806-118.83s88.511-10.534,96.801,20.162
	c7.552,27.962-23.412,29.389-21.322,46.778C480.731,299.308,491.752,302.572,498.146,315.538z"/>
<circle style="fill:#FFAF18;" cx="451.131" cy="321.404" r="16.716"/>
<circle style="fill:#FF5957;" cx="410.719" cy="283.583" r="16.716"/>
<circle style="fill:#35BD69;" cx="454.046" cy="245.366" r="16.716"/>
<ellipse transform="matrix(0.5 -0.866 0.866 0.5 115.6548 308.0546)" style="fill:#304967;" cx="324.614" cy="53.866" rx="22.805" ry="19.728"/>
<path style="fill:#89CD37;" d="M213.859,297.787v20.352c0,6.799-4.088,12.932-10.365,15.548l-67.239,28.016
	c-14.206,5.92-23.458,22.007-23.458,37.396v81.09h286.345V399.1c0-15.388-9.254-31.478-23.458-37.396l-67.239-28.016
	c-6.277-2.615-10.365-8.749-10.365-15.548v-20.352H213.859z"/>
<g>
	<path style="fill:#FEBBA0;" d="M298.077,303.625v52.045c0,23.081-18.978,41.965-42.059,41.965l0,0
		c-23.081,0-42.161-18.884-42.161-41.965v-52.045H298.077z"/>
	<path style="fill:#FEBBA0;" d="M349.997,177.835v-30.442c0-51.829-42.016-93.845-93.845-93.845
		c-51.83,0-93.845,42.016-93.845,93.845h-0.368v30.442c-12.925,0-23.403,10.478-23.403,23.403c0,12.925,10.478,23.403,23.403,23.403
		v17.472c1.126,14.734,8.311,27.852,19.191,35.037l56.573,32.342c11.36,7.503,25.173,7.503,36.532,0l56.404-32.342
		c10.879-7.185,18.232-20.303,19.36-35.037V224.64c12.925,0,23.403-10.478,23.403-23.403
		C373.4,188.313,362.922,177.835,349.997,177.835z"/>
</g>
<path style="fill:#9E554C;" d="M299.53,113.477c-11.082-25.042-22.176-44.41-32.865-59.34c-3.452-0.384-6.959-0.589-10.513-0.589
	c-51.83,0-93.845,42.016-93.845,93.845h-0.367v9.509C161.939,156.902,241.699,174.074,299.53,113.477z"/>
<circle style="fill:#FFAF18;" cx="174.048" cy="406.667" r="23.249"/>
<circle style="fill:#FF5957;" cx="202.288" cy="434.907" r="16.681"/>
<path style="fill:#102F50;" d="M66.859,221.845l8.385,135.031c0,10.946-8.875,19.821-19.821,19.821l0,0
	c-10.947,0-19.822-8.874-19.822-19.821l8.386-135.031L66.859,221.845z"/>
<path style="fill:#9E554C;" d="M21.911,188.332c-0.001-18.509,10.223-47.127,38.226-64.408c6.577,31.942,28.8,45.899,28.8,64.408
	c0,18.508-15.005,33.513-33.513,33.513C36.915,221.845,21.91,206.84,21.911,188.332z"/>
<ellipse transform="matrix(0.5 -0.866 0.866 0.5 65.5579 308.007)" style="fill:#304967;" cx="299.525" cy="97.228" rx="43.792" ry="81.438"/>
<path d="M10.585,490.646h-0.137C4.678,490.646,0,485.968,0,480.198s4.678-10.448,10.448-10.448h0.137
	c5.769,0,10.448,4.677,10.448,10.448S16.354,490.646,10.585,490.646z"/>
<path d="M294.071,214.146c-6.439,0-11.678-5.238-11.678-11.677c0-6.44,5.24-11.678,11.678-11.678s11.677,5.238,11.677,11.678
	C305.747,208.906,300.51,214.146,294.071,214.146z"/>
<path d="M217.865,214.146c-6.439,0-11.677-5.238-11.677-11.677c0-6.44,5.238-11.678,11.677-11.678
	c6.439,0,11.678,5.238,11.678,11.678C229.544,208.906,224.304,214.146,217.865,214.146z"/>
<path d="M256.012,271.119c-11.39,0-20.657-9.267-20.657-20.657c0-5.77,4.678-10.448,10.448-10.448h20.419
	c5.769,0,10.448,4.677,10.448,10.448C276.668,261.852,267.402,271.119,256.012,271.119z"/>
<path d="M501.489,469.742h-0.137c-5.769,0-10.448,4.677-10.448,10.448s4.678,10.448,10.448,10.448h0.137
	c5.769,0,10.448-4.677,10.448-10.448S507.258,469.742,501.489,469.742z"/>
<path d="M283.873,445.713h0.137c5.769,0,10.448-4.677,10.448-10.448s-4.678-10.448-10.448-10.448h-0.137
	c-5.769,0-10.448,4.677-10.448,10.448S278.104,445.713,283.873,445.713z"/>
<path d="M357.007,445.712c5.769,0,10.448-4.677,10.448-10.448s-4.678-10.448-10.448-10.448h-39.198
	c-5.769,0-10.448,4.677-10.448,10.448s4.678,10.448,10.448,10.448H357.007z"/>
<path d="M197.88,382.843c-13.139-13.138-34.516-13.138-47.655,0c-13.138,13.139-13.138,34.517,0,47.655
	c6.57,6.569,15.198,9.853,23.828,9.853c0.547,0,1.096-0.014,1.643-0.041c1.044,5.185,3.584,9.951,7.408,13.776
	c5.124,5.124,11.936,7.945,19.182,7.945s14.058-2.822,19.181-7.945c0,0,0,0,0.001,0c5.124-5.124,7.945-11.936,7.945-19.182
	c0-7.246-2.822-14.059-7.945-19.182c-3.825-3.825-8.591-6.366-13.776-7.408C208.138,399.147,204.866,389.831,197.88,382.843z
	 M165.001,415.723c-4.991-4.991-4.991-13.113,0-18.104c2.496-2.496,5.773-3.743,9.052-3.743c3.278,0,6.556,1.247,9.052,3.743
	c4.991,4.991,4.991,13.113,0,18.104C178.113,420.715,169.992,420.715,165.001,415.723z M202.287,428.673
	c1.665,0,3.229,0.649,4.408,1.826c1.176,1.177,1.825,2.743,1.825,4.407s-0.649,3.229-1.825,4.407h-0.001
	c-1.177,1.176-2.741,1.825-4.407,1.825s-3.229-0.649-4.408-1.826c-1.176-1.177-1.825-2.743-1.825-4.407
	c0-1.663,0.648-3.226,1.823-4.404c0.001-0.001,0.002-0.002,0.003-0.003c0.001-0.001,0.002-0.002,0.003-0.003
	C199.061,429.321,200.624,428.673,202.287,428.673z"/>
<path d="M99.385,188.332c-0.001-11.975-6.237-21.537-12.84-31.66c-6.163-9.45-13.149-20.16-16.174-34.853
	c-0.687-3.34-2.963-6.135-6.094-7.486c-3.13-1.352-6.725-1.089-9.626,0.701c-31.876,19.672-43.187,51.78-43.187,73.298
	c-0.001,11.742,4.572,22.782,12.876,31.085c2.701,2.701,5.695,4.999,8.906,6.882l-8.07,129.929
	c-0.014,0.216-0.021,0.433-0.021,0.648c0,16.69,13.579,30.269,30.27,30.269c16.69,0,30.269-13.579,30.269-30.269
	c0-0.216-0.007-0.433-0.021-0.648l-8.071-129.964C90.619,218.624,99.384,204.486,99.385,188.332z M64.793,357.14
	c-0.141,5.046-4.289,9.108-9.369,9.108c-5.081,0-9.231-4.062-9.371-9.109l7.756-124.885c0.537,0.02,1.074,0.04,1.614,0.04
	c0.541,0,1.077-0.022,1.614-0.041L64.793,357.14z M55.424,211.397c-6.161,0-11.953-2.399-16.31-6.755
	c-4.357-4.357-6.755-10.149-6.755-16.309l0,0c0-10.91,4.939-31.211,22.063-47.034c4.241,10.873,9.841,19.459,14.62,26.789
	c5.278,8.092,9.447,14.482,9.447,20.244C78.488,201.05,68.142,211.397,55.424,211.397z"/>
<path d="M468.789,469.734h-59.202V399.1c0-20.366-12.291-39.708-29.887-47.041l-67.239-28.015c-2.39-0.996-3.936-3.313-3.936-5.904
	v-14.516v-1.753l27.31-15.659c0.19-0.109,0.377-0.225,0.56-0.346c13.674-9.031,22.653-25.09,24.018-42.96
	c0.021-0.264,0.03-0.531,0.03-0.796v-8.674c13.567-4.413,23.402-17.18,23.402-32.201s-9.834-27.788-23.402-32.201v-10.051
	c8.191-3.392,14.562-8.718,18.662-15.818c7.862-13.618,5.968-31.183-5.336-49.462c-5.594-9.046-13.245-17.823-22.413-25.85
	c3.831-7.183,5.137-15.281,3.666-22.946c-1.63-8.493-6.651-15.725-13.778-19.838c-7.127-4.115-15.9-4.849-24.069-2.013
	c-7.367,2.557-13.723,7.73-18.027,14.63c-11.57-3.948-23.031-6.195-33.692-6.518c-20.288-0.603-35.806,5.724-44.095,17.887
	c-40.691,14.393-68.275,52.41-69.463,95.435c-0.265,0.92-0.407,1.893-0.407,2.898v21.644c-13.567,4.413-23.402,17.18-23.402,32.201
	s9.834,27.788,23.402,32.201v8.674c0,0.265,0.01,0.532,0.03,0.796c1.372,17.943,10.288,34.002,23.85,42.96
	c0.187,0.123,0.377,0.24,0.573,0.352l27.466,15.702v16.22c0,2.59-1.545,4.907-3.936,5.904l-67.239,28.017
	c-17.597,7.332-29.887,26.676-29.887,47.04v70.635H44.384c-5.769,0-10.448,4.677-10.448,10.448s4.678,10.455,10.448,10.455h424.406
	c5.769,0,10.448-4.687,10.448-10.457S474.56,469.734,468.789,469.734z M324.027,42.8c1.43-0.496,4.215-1.11,6.771,0.369
	c2.559,1.477,3.42,4.193,3.705,5.68c0.368,1.913,0.246,3.995-0.32,6.029c-2.45-1.597-4.963-3.143-7.534-4.626
	c-2.54-1.467-5.103-2.855-7.68-4.164C320.449,44.582,322.189,43.437,324.027,42.8z M238.049,61.729
	c3.598-6.233,12.641-9.754,24.854-9.754c14.55,0,33.603,5.001,53.3,16.373c17.37,10.029,31.503,22.938,39.796,36.349
	c6.965,11.264,8.793,21.478,5.013,28.025c-3.78,6.548-13.534,10.068-26.776,9.671c-15.761-0.476-34.007-6.262-51.378-16.29
	C246.627,105.184,230.163,75.387,238.049,61.729z M215.478,74.572c0.951,8.29,4.228,17.143,9.811,26.171
	c7.175,11.602,17.737,22.759,30.547,32.46c-33.583,17.009-67.637,16.241-83.115,14.68c0.007-0.164,0.032-0.324,0.032-0.491
	C172.754,116.814,189.449,89.115,215.478,74.572z M186.631,268.258c-7.984-5.406-13.283-15.291-14.244-26.568v-17.052
	c0-5.77-4.678-10.448-10.448-10.448c-7.143,0-12.954-5.812-12.954-12.954s5.812-12.954,12.954-12.954
	c5.769,0,10.448-4.677,10.448-10.448V168.9c4.455,0.417,9.929,0.742,16.188,0.742c22.6,0,55.402-4.237,87.128-23.601
	c19.35,10.587,39.779,16.69,57.901,17.238c0.898,0.027,1.787,0.041,2.667,0.041c1.111,0,2.199-0.03,3.28-0.073v14.589
	c0,5.77,4.678,10.448,10.448,10.448c7.143,0,12.954,5.812,12.954,12.954s-5.812,12.954-12.954,12.954
	c-5.769,0-10.448,4.677-10.448,10.448v17.05c-0.949,11.047-6.442,21.173-14.418,26.574l-56.094,32.163
	c-0.19,0.11-0.377,0.225-0.56,0.346c-7.834,5.173-17.183,5.173-25.017,0c-0.187-0.123-0.377-0.241-0.573-0.352L186.631,268.258z
	 M287.631,313.853v41.817c0,17.379-14.181,31.517-31.612,31.517c-17.486,0-31.713-14.139-31.713-31.517v-41.804l7.939,4.538
	c7.333,4.763,15.528,7.144,23.725,7.144c8.198,0,16.396-2.383,23.731-7.148L287.631,313.853z M388.692,469.734l-265.448,0.001V399.1
	c0-11.776,7.321-23.707,17.029-27.752l63.138-26.307v10.628c0,28.9,23.6,52.413,52.608,52.413c28.953,0,52.507-23.513,52.507-52.413
	v-10.628l63.139,26.307c9.707,4.044,17.028,15.976,17.028,27.752v70.634H388.692z"/>
<path d="M448.006,374.41c-1.161,0-2.323-0.023-3.484-0.071c-16.674-0.685-40.755-6.528-60.778-30.473
	c-16.857-20.16-24.632-45.003-21.892-69.956c2.68-24.397,15.117-46.983,35.019-63.597c19.887-16.601,46.642-21.815,71.565-13.949
	c21.157,6.677,37.256,21.777,42.018,39.408c6.022,22.297-6.936,33.689-14.677,40.493c-4.948,4.349-6.56,6.081-6.358,7.762
	c0.559,4.652,2.688,7.127,7.068,11.847c3.436,3.703,7.714,8.312,11.033,15.043c8.472,17.18,3.642,34.999-13.252,48.887
	C483.148,368.943,465.68,374.41,448.006,374.41z M444.849,213.648c-10.126,0-22.64,2.732-34.589,12.706
	c-15.735,13.135-25.551,30.834-27.637,49.838c-2.114,19.243,3.978,38.516,17.151,54.27c28.227,33.755,68.982,23.262,81.222,13.2
	c12.216-10.043,10.576-17.836,7.78-23.503l0,0c-1.97-3.995-4.583-6.811-7.608-10.072c-4.946-5.33-11.103-11.965-12.497-23.564
	c-1.549-12.888,7.038-20.439,13.308-25.95c7.58-6.664,10.824-10.004,8.3-19.352c-2.878-10.658-13.922-20.443-28.135-24.928
	C458.46,215.129,452.301,213.648,444.849,213.648z"/>
<path d="M451.15,348.558c-7.531,0-15.026-3.104-20.388-9.182c-9.908-11.234-8.83-28.433,2.402-38.341
	c11.234-9.909,28.433-8.829,38.34,2.402c9.909,11.232,8.83,28.431-2.402,38.341l0,0C463.948,346.325,457.536,348.558,451.15,348.558
	z M462.192,333.943h0.01H462.192z M451.13,315.141c-1.473,0-2.953,0.515-4.143,1.565c-2.592,2.286-2.841,6.255-0.554,8.848
	c2.286,2.59,6.255,2.841,8.847,0.554c1.256-1.108,2.005-2.638,2.11-4.31c0.106-1.671-0.448-3.283-1.555-4.538
	C454.597,315.858,452.868,315.141,451.13,315.141z"/>
<path d="M410.76,310.75c-0.577,0-1.154-0.018-1.735-0.054c-7.242-0.454-13.873-3.701-18.673-9.142
	c-9.908-11.231-8.829-28.431,2.403-38.34c5.442-4.799,12.437-7.188,19.667-6.739c7.242,0.453,13.873,3.701,18.673,9.142
	c9.906,11.231,8.83,28.431-2.402,38.34l0,0C423.687,308.371,417.375,310.75,410.76,310.75z M421.781,296.121h0.01H421.781z
	 M410.714,277.317c-1.526,0-2.982,0.548-4.137,1.567c-2.592,2.287-2.842,6.256-0.555,8.848c1.109,1.256,2.638,2.005,4.309,2.11
	c1.679,0.1,3.285-0.448,4.54-1.555l0,0c2.591-2.286,2.841-6.256,0.554-8.848c-1.108-1.256-2.638-2.005-4.309-2.109
	C410.98,277.321,410.847,277.317,410.714,277.317z"/>
<path d="M454.085,272.535c-0.577,0-1.154-0.019-1.735-0.054c-7.242-0.453-13.873-3.701-18.673-9.142
	c-4.8-5.441-7.193-12.426-6.739-19.668c0.454-7.242,3.701-13.873,9.142-18.673c5.44-4.8,12.421-7.19,19.667-6.74
	c7.242,0.454,13.873,3.701,18.673,9.142s7.193,12.425,6.739,19.667s-3.701,13.872-9.141,18.672l0,0
	C467.012,270.156,460.701,272.535,454.085,272.535z M454.039,239.101c-1.526,0-2.982,0.548-4.137,1.567
	c-1.256,1.109-2.005,2.638-2.11,4.31c-0.106,1.671,0.448,3.283,1.555,4.538c1.108,1.256,2.638,2.005,4.309,2.109
	c1.679,0.109,3.284-0.447,4.537-1.555h0.001c1.256-1.107,2.005-2.638,2.11-4.309c0.106-1.672-0.448-3.283-1.555-4.538
	c-1.108-1.256-2.638-2.005-4.309-2.11C454.306,239.105,454.172,239.101,454.039,239.101z"/>
<g>
</g>
<g>
</g>
<g>
</g>
<g>
</g>
<g>
</g>
<g>
</g>
<g>
</g>
<g>
</g>
<g>
</g>
<g>
</g>
<g>
</g>
<g>
</g>
<g>
</g>
<g>
</g>
<g>
</g>
</svg>
