<?xml version="1.0" encoding="iso-8859-1"?>
<!-- Generator: Adobe Illustrator 19.0.0, SVG Export Plug-In . SVG Version: 6.00 Build 0)  -->
<svg version="1.1" id="Layer_1" xmlns="http://www.w3.org/2000/svg" xmlns:xlink="http://www.w3.org/1999/xlink" x="0px" y="0px"
	 viewBox="0 0 511.783 511.783" style="enable-background:new 0 0 511.783 511.783;" xml:space="preserve">
<g transform="translate(1 1)">
	<g>
		<path style="fill:#54C9FD;" d="M224.627,497.875h130.169c19.092,0,34.712-15.62,34.712-34.712c0-6.942-7.81-11.281-13.885-6.942
			c-6.075,4.339-13.017,6.942-20.827,6.942H224.627c-5.207,0-8.678,3.471-8.678,8.678v17.356
			C215.949,494.403,219.42,497.875,224.627,497.875L224.627,497.875z"/>
		<path style="fill:#54C9FD;" d="M7.678,246.214v130.169c0,19.092,15.62,34.712,34.712,34.712l0,0c6.942,0,11.281-7.81,6.942-13.885
			c-4.339-6.075-6.942-13.017-6.942-20.827V246.214c0-5.207-3.471-8.678-8.678-8.678H16.356
			C11.149,237.536,7.678,241.007,7.678,246.214"/>
	</g>
	<path style="fill:#FFDD09;" d="M450.254,55.298c0-24.298-19.092-43.39-43.39-43.39s-43.39,19.092-43.39,43.39
		s19.092,43.39,43.39,43.39S450.254,79.597,450.254,55.298"/>
	<path style="fill:#FD9808;" d="M411.203,11.908c-4.339,0-8.678,0.868-13.017,2.603c17.356,5.207,30.373,21.695,30.373,40.786
		s-13.017,35.58-30.373,40.786c4.339,1.736,8.678,2.603,13.017,2.603c24.298,0,43.39-19.092,43.39-43.39
		S435.502,11.908,411.203,11.908"/>
	<path style="fill:#FFDD09;" d="M428.559,11.908c-4.339,0-8.678,0.868-13.017,2.603c17.356,5.207,30.373,21.695,30.373,40.786
		s-13.017,35.58-30.373,40.786c4.339,1.736,8.678,2.603,13.017,2.603c24.298,0,43.39-19.092,43.39-43.39
		S452.858,11.908,428.559,11.908"/>
	<path style="fill:#FFFFFF;" d="M402.525,11.908c4.339,0,8.678,0.868,13.017,2.603c-17.356,5.207-30.373,21.695-30.373,40.786
		s13.017,35.58,30.373,40.786c-4.339,1.736-8.678,2.603-13.017,2.603c-24.298,0-43.39-19.092-43.39-43.39
		S378.227,11.908,402.525,11.908"/>
	<path style="fill:#FFDD09;" d="M496.247,109.969l-0.868-0.868c-7.81-7.81-21.695-7.81-29.505,0l-45.125,45.993
		c-6.075,6.075-14.753,6.075-20.827,0.868l-63.349-59.01c-5.207-4.339-11.281-6.942-17.356-6.942h-94.59l-79.837,75.498
		c-7.81,7.81-9.546,21.695-1.736,30.373c8.678,9.546,22.563,8.678,31.241,0l59.01-62.481h43.39L129.169,298.281H68.424
		c-13.885,0-26.034,10.414-26.034,26.034c0,14.753,11.281,26.034,26.034,26.034h95.458l68.556-72.895l61.614,64.217l-16.488,88.515
		c-2.603,12.149,2.603,25.166,13.885,30.373c15.62,6.942,32.108-1.736,36.447-17.356l26.902-127.566l-78.102-78.102l69.424-69.424
		l45.993,45.993c7.81,7.81,21.695,7.81,29.505,0l19.959-19.959l54.671-54.671C504.925,131.664,504.925,117.78,496.247,109.969"/>
	<path d="M302.729,471.841c-5.207,0-9.546-0.868-14.753-3.471c-14.753-6.942-23.431-23.431-19.092-40.786l15.62-84.176
		l-52.068-54.671l-62.481,66.82c-0.868,2.603-3.471,3.471-6.075,3.471H68.424c-19.959,0-34.712-14.753-34.712-34.712
		s14.753-34.712,34.712-34.712h57.275l131.905-147.525h-19.959l-56.407,59.878c-5.207,6.075-13.017,9.546-21.695,9.546l0,0
		c-8.678,0-16.488-3.471-21.695-9.546c-10.414-11.281-9.546-30.373,1.736-42.522l79.837-76.366c0.868-0.868,3.471-1.736,5.207-1.736
		h94.59c8.678,0,16.488,3.471,22.563,8.678l63.349,59.01c2.603,2.603,6.075,2.603,8.678,0l45.125-45.993
		c11.281-11.281,31.241-11.281,42.522,0l0.868,0.868l0,0c11.281,11.281,11.281,30.373,0,41.654l-74.63,74.631
		c-11.281,11.281-30.373,11.281-41.654,0l-39.919-39.919l-57.275,57.275l72.027,72.027c1.736,1.736,2.603,5.207,2.603,7.81
		l-26.902,127.566c-2.603,10.414-8.678,19.092-18.224,23.431C313.142,470.973,307.936,471.841,302.729,471.841z M232.437,268.776
		c2.603,0,4.339,0.868,6.075,2.603l61.614,64.217c1.736,1.736,2.603,5.207,2.603,7.81l-16.488,88.515
		c-1.736,8.678,1.736,17.356,9.546,20.827c5.207,2.603,10.414,1.736,14.753,0c4.339-2.603,7.81-6.942,9.546-11.281l26.034-122.359
		l-74.631-74.631c-2.603-2.603-3.471-4.339-3.471-6.942c0-2.603,0.868-4.339,2.603-6.075l69.424-69.424
		c3.471-3.471,8.678-3.471,12.149,0l45.993,45.993c4.339,4.339,12.149,4.339,17.356,0l74.631-74.631
		c4.339-4.339,4.339-12.149,0-16.488l-0.868-0.868c-4.339-4.339-13.017-4.339-17.356,0l-45.125,45.993
		c-8.678,8.678-23.431,9.546-32.976,0.868l-63.349-59.01c-2.603-2.603-6.942-4.339-10.414-4.339h-91.986l-77.234,73.763
		c-5.207,5.207-5.207,13.017-0.868,18.224c2.603,2.603,6.075,4.339,9.546,4.339l0,0c3.471,0,6.942-1.736,8.678-4.339l59.01-62.481
		c1.736-1.736,4.339-2.603,6.075-2.603h43.39c3.471,0,6.942,1.736,7.81,5.207c0.868,3.471,0.868,6.942-1.736,9.546L135.244,306.092
		c-0.868,0-3.471,0.868-6.075,0.868H68.424c-8.678,0-17.356,5.207-17.356,17.356c0,10.414,6.942,17.356,17.356,17.356h91.986
		l65.953-70.292C228.098,269.644,229.834,268.776,232.437,268.776L232.437,268.776z"/>
	<path d="M406.864,107.366c-28.637,0-52.068-23.431-52.068-52.068s23.431-52.068,52.068-52.068
		c28.637,0,52.068,23.431,52.068,52.068S435.502,107.366,406.864,107.366z M406.864,20.586c-19.092,0-34.712,15.62-34.712,34.712
		s15.62,34.712,34.712,34.712s34.712-15.62,34.712-34.712S425.956,20.586,406.864,20.586z"/>
	<path d="M354.797,506.553H224.627c-9.546,0-17.356-7.81-17.356-17.356v-17.356c0-9.546,7.81-17.356,17.356-17.356h130.169
		c6.075,0,11.281-1.736,15.62-5.207c5.207-4.339,12.149-4.339,18.224-1.736c6.075,2.603,9.546,8.678,9.546,15.62
		C398.186,487.461,379.095,506.553,354.797,506.553z M224.627,471.841v17.356h130.169c14.753,0,26.034-11.281,26.034-26.034
		c-7.81,5.207-16.488,8.678-26.034,8.678H224.627z"/>
	<path d="M42.39,419.773c-24.298,0-43.39-19.092-43.39-43.39V246.214c0-9.546,7.81-17.356,17.356-17.356h17.356
		c9.546,0,17.356,7.81,17.356,17.356v130.169c0,6.075,1.736,11.281,5.207,15.62c4.339,5.207,4.339,12.149,1.736,18.224
		C55.407,416.302,49.332,419.773,42.39,419.773z M16.356,246.214v130.169c0,14.753,11.281,26.034,26.034,26.034
		c-5.207-7.81-8.678-16.488-8.678-26.034V246.214H16.356z"/>
</g>
<g>
</g>
<g>
</g>
<g>
</g>
<g>
</g>
<g>
</g>
<g>
</g>
<g>
</g>
<g>
</g>
<g>
</g>
<g>
</g>
<g>
</g>
<g>
</g>
<g>
</g>
<g>
</g>
<g>
</g>
</svg>
