<svg width="1024" height="1024" viewBox="0 0 1024 1024" fill="none" xmlns="http://www.w3.org/2000/svg">
<rect width="1024" height="1024" fill="#2BA5F7"/>
<path d="M512 439.468C583.895 439.468 642.384 380.979 642.384 309.084C642.384 237.19 583.895 178.698 512 178.698C440.106 178.698 381.616 237.19 381.616 309.084C381.616 380.979 440.106 439.468 512 439.468ZM448.929 295.152C456.626 287.459 469.098 287.459 476.795 295.152L495.621 313.98L547.205 262.393C554.902 254.7 567.374 254.7 575.071 262.393C582.766 270.088 582.766 282.563 575.071 290.258L509.553 355.776C505.706 359.621 500.664 361.547 495.621 361.547C490.577 361.547 485.535 359.623 481.688 355.776L448.929 323.017C441.235 315.322 441.235 302.844 448.929 295.152Z" fill="#0D0C0C" stroke="#0D0C0C" stroke-width="2.24467"/>
<path d="M255.356 369.169C297.643 369.169 332.047 334.765 332.047 292.478C332.047 250.191 297.643 215.787 255.356 215.787C213.069 215.787 178.667 250.191 178.667 292.478C178.667 334.765 213.069 369.169 255.356 369.169Z" fill="#0D0C0C" stroke="#0D0C0C" stroke-width="2.24467"/>
<path d="M186.225 478.952V638.222C186.225 674.804 215.879 704.458 252.46 704.458H338.784V822.094C338.784 831.055 346.047 838.321 355.01 838.321H431.502C440.463 838.321 447.729 831.057 447.729 822.094V652.409C447.729 621.529 422.696 596.498 391.818 596.498H324.489V478.952C324.489 440.772 293.538 409.82 255.358 409.82C217.176 409.818 186.225 440.77 186.225 478.952Z" fill="#0D0C0C" stroke="#0D0C0C" stroke-width="2.24467"/>
<path d="M768.644 369.169C810.932 369.169 845.334 334.765 845.334 292.478C845.334 250.191 810.932 215.787 768.644 215.787C726.357 215.787 691.953 250.191 691.953 292.478C691.953 334.765 726.357 369.169 768.644 369.169Z" fill="#0D0C0C" stroke="#0D0C0C" stroke-width="2.24467"/>
<path d="M699.511 478.952V596.498H632.184C601.304 596.498 576.271 621.531 576.271 652.409V822.094C576.271 831.055 583.535 838.321 592.498 838.321H668.99C677.951 838.321 685.216 831.057 685.216 822.094V704.458H771.54C808.121 704.458 837.775 674.804 837.775 638.222V478.952C837.775 440.772 806.824 409.82 768.644 409.82C730.462 409.818 699.511 440.77 699.511 478.952Z" fill="#0D0C0C" stroke="#0D0C0C" stroke-width="2.24467"/>
<path d="M626.739 519.437C637.621 519.437 646.44 510.615 646.44 499.735C646.44 488.853 637.619 480.034 626.739 480.034H397.262C386.38 480.034 377.561 488.855 377.561 499.735C377.561 510.617 386.382 519.437 397.262 519.437H492.297V825.598C492.297 836.48 501.118 845.3 511.998 845.3C522.878 845.3 531.7 836.478 531.7 825.598V519.437H626.739Z" fill="#0D0C0C" stroke="#0D0C0C" stroke-width="2.24467"/>
</svg>
